# xmcd
#
# Track frame offsets:
#	150
#	11742
#	25512
#	39377
#	51560
#	65022
#	78067
#	91827
#	104327
#	116257
#	129387
#	143695
#	157487
#	169787
#
# Disc length: 2425 seconds
#
# Revision: 0
# Processed by: cddbd v1.4PL0 Copyright (c) Steve Scherf et al.
# Submitted via: audiograbber 1.80.04
#
DISCID=b109770e
DTITLE=Little Walter - The Great Blues Legends   Disc4
DYEAR=1900
DGENRE=Blues
TTITLE0=My Babe
TTITLE1=You're So Fine
TTITLE2=Blues With A Feeling
TTITLE3=Last Night
TTITLE4=I Can't Hold Out Much Longer
TTITLE5=Mean Old World
TTITLE6=You Better Watch Yourself
TTITLE7=Tell Me Mama 
TTITLE8=It's Too Late Brother
TTITLE9=Just A Feeling
TTITLE10=Sad Hours 
TTITLE11=Flying Saucer
TTITLE12=I Got To Go
TTITLE13=Juke
EXTD=
EXTT0=
EXTT1=
EXTT2=
EXTT3=
EXTT4=
EXTT5=
EXTT6=
EXTT7=
EXTT8=
EXTT9=
EXTT10=
EXTT11=
EXTT12=
EXTT13=
PLAYORDER=
